<svg width="24" height="24" viewBox="0 0 24 24" xmlns="http://www.w3.org/2000/svg">
<path fill-rule="evenodd" clip-rule="evenodd" d="M3.9931 3H20.0069C20.2703 3 20.5229 3.10463 20.7091 3.29087C20.8954 3.47712 21 3.72972 21 3.9931V20.0069C21 20.2703 20.8954 20.5229 20.7091 20.7091C20.5229 20.8954 20.2703 21 20.0069 21H15.4138L15.4138 14.0392H17.7631L17.7635 14.0359H17.7786L18.1293 11.311H15.4293V9.57621C15.4293 8.92718 15.5787 8.45066 16.262 8.30257C16.4051 8.27293 16.5712 8.25743 16.7638 8.25743H18.2069V5.82432L18.2069 5.82414C17.512 5.75232 16.8138 5.7171 16.1152 5.71862C16.0275 5.71862 15.9411 5.72088 15.8558 5.72539C13.9578 5.82431 12.6713 7.03373 12.6222 9.18111C12.6212 9.22348 12.6207 9.26621 12.6207 9.30931V11.3141H10.2776V14.039L10.2776 14.0392H12.6207L12.6207 21H3.9931C3.72972 21 3.47712 20.8954 3.29087 20.7091C3.10463 20.5229 3 20.2703 3 20.0069V3.9931C3 3.72972 3.10463 3.47712 3.29087 3.29087C3.47712 3.10463 3.72972 3 3.9931 3Z" />
</svg>
