<svg width="16" height="16" viewBox="0 0 16 16" xmlns="http://www.w3.org/2000/svg">
<path fill-rule="evenodd" clip-rule="evenodd" d="M8.00002 1.99997C6.3705 1.99997 6.16618 2.00688 5.52621 2.03608C4.88758 2.06521 4.45142 2.16664 4.06977 2.31495C3.67521 2.46829 3.34061 2.67345 3.00704 3.00701C2.67348 3.34057 2.46832 3.6752 2.31499 4.06975C2.16667 4.4514 2.06525 4.88756 2.0361 5.52619C2.0069 6.16615 2 6.37048 2 8C2 9.62949 2.0069 9.83382 2.0361 10.4738C2.06525 11.1124 2.16667 11.5486 2.31499 11.9302C2.46832 12.3248 2.67348 12.6594 3.00704 12.993C3.34061 13.3265 3.67521 13.5317 4.06977 13.685C4.45142 13.8333 4.88758 13.9348 5.52621 13.9639C6.16618 13.9931 6.3705 14 8.00002 14C9.62951 14 9.83384 13.9931 10.4738 13.9639C11.1124 13.9348 11.5486 13.8333 11.9302 13.685C12.3248 13.5317 12.6594 13.3265 12.993 12.993C13.3265 12.6594 13.5317 12.3248 13.685 11.9302C13.8333 11.5486 13.9348 11.1124 13.9639 10.4738C13.9931 9.83382 14 9.62949 14 8C14 6.37048 13.9931 6.16615 13.9639 5.52619C13.9348 4.88756 13.8333 4.4514 13.685 4.06975C13.5317 3.6752 13.3265 3.34057 12.993 3.00701C12.6594 2.67345 12.3248 2.46829 11.9302 2.31495C11.5486 2.16664 11.1124 2.06521 10.4738 2.03608C9.83384 2.00688 9.62951 1.99997 8.00002 1.99997ZM8.00002 3.08105C9.60208 3.08105 9.79185 3.08718 10.4245 3.11604C11.0095 3.14272 11.3272 3.24046 11.5386 3.32263C11.8187 3.43148 12.0186 3.56149 12.2285 3.77144C12.4385 3.98141 12.5685 4.18129 12.6774 4.46135C12.7595 4.67277 12.8573 4.99047 12.8839 5.57547C12.9128 6.20814 12.9189 6.39792 12.9189 8C12.9189 9.60206 12.9128 9.79183 12.8839 10.4245C12.8573 11.0095 12.7595 11.3272 12.6774 11.5386C12.5685 11.8187 12.4385 12.0186 12.2285 12.2285C12.0186 12.4385 11.8187 12.5685 11.5386 12.6773C11.3272 12.7595 11.0095 12.8573 10.4245 12.8839C9.79194 12.9128 9.60219 12.9189 8.00002 12.9189C6.39782 12.9189 6.2081 12.9128 5.57549 12.8839C4.9905 12.8573 4.6728 12.7595 4.46138 12.6773C4.18131 12.5685 3.98144 12.4385 3.77149 12.2285C3.56154 12.0186 3.4315 11.8187 3.32266 11.5386C3.24049 11.3272 3.14275 11.0095 3.11606 10.4245C3.08719 9.79183 3.08108 9.60206 3.08108 8C3.08108 6.39792 3.08719 6.20814 3.11606 5.57547C3.14275 4.99047 3.24049 4.67277 3.32266 4.46135C3.4315 4.18129 3.56153 3.98141 3.77148 3.77146C3.98144 3.56149 4.18131 3.43148 4.46138 3.32263C4.6728 3.24046 4.9905 3.14272 5.57549 3.11604C6.20817 3.08718 6.39794 3.08105 8.00002 3.08105ZM8.00004 9.99997C6.89545 9.99997 6.00003 9.10455 6.00003 7.99998C6.00003 6.89539 6.89545 5.99997 8.00004 5.99997C9.10461 5.99997 10 6.89539 10 7.99998C10 9.10455 9.10461 9.99997 8.00004 9.99997ZM8.00004 4.91888C6.29838 4.91888 4.91895 6.29832 4.91895 7.99998C4.91895 9.70162 6.29838 11.0811 8.00004 11.0811C9.70168 11.0811 11.0811 9.70162 11.0811 7.99998C11.0811 6.29832 9.70168 4.91888 8.00004 4.91888ZM11.2028 5.51709C11.6005 5.51709 11.9229 5.19475 11.9229 4.7971C11.9229 4.39945 11.6005 4.07708 11.2028 4.07708C10.8052 4.07708 10.4828 4.39945 10.4828 4.7971C10.4828 5.19475 10.8052 5.51709 11.2028 5.51709Z" fill="currentColor"/>
</svg>
