<svg width="24" height="24" viewBox="0 0 24 24" fill="none" xmlns="http://www.w3.org/2000/svg">
<path fill-rule="evenodd" clip-rule="evenodd" d="M3 4.28941C3 3.57748 3.59552 3 4.33016 3H19.6698C20.4045 3 21 3.57748 21 4.28941V19.7106C21 20.4228 20.4045 21 19.6698 21H4.33016C3.59552 21 3 20.4228 3 19.7106V4.28941ZM8.45636 18.0674V9.93938H5.73762V18.0674H8.45636ZM7.09698 8.82963C8.04506 8.82963 8.63516 8.20549 8.63516 7.4255C8.61749 6.62795 8.04506 6.02112 7.11496 6.02112C6.18496 6.02112 5.5769 6.62795 5.5769 7.4255C5.5769 8.20549 6.16688 8.82963 7.07926 8.82963H7.09693H7.09698ZM12.6794 18.0674H9.96078C9.96078 18.0674 9.99646 10.7021 9.96078 9.93937H12.6795V11.0901C12.6734 11.0995 12.6673 11.1089 12.6613 11.1181H12.6795V11.0901C13.0408 10.5363 13.6874 9.74865 15.1296 9.74865C16.9184 9.74865 18.2596 10.9103 18.2596 13.4069V18.0674H15.5411V13.7191C15.5411 12.6264 15.1476 11.8811 14.1638 11.8811C13.4128 11.8811 12.9654 12.3837 12.7689 12.8691C12.6971 13.0428 12.6794 13.2854 12.6794 13.5284V18.0674Z" />
</svg>
