<svg width="16" height="16" viewBox="0 0 16 16" xmlns="http://www.w3.org/2000/svg">
<path fill-rule="evenodd" clip-rule="evenodd" d="M14 8C14 11.3137 11.3137 14 8 14C4.68629 14 2 11.3137 2 8C2 4.68629 4.68629 2 8 2C11.3137 2 14 4.68629 14 8ZM11.018 7.04906C11.018 8.96006 9.56297 11.1651 6.90197 11.1651C6.08598 11.1651 5.32398 10.9251 4.69098 10.5111C4.80498 10.5261 4.91898 10.5321 5.03598 10.5321C5.71398 10.5321 6.33798 10.3011 6.83297 9.91406C6.19998 9.90206 5.66598 9.48506 5.48298 8.90906C5.57298 8.92706 5.66298 8.93606 5.75598 8.93606C5.88798 8.93606 6.01698 8.91806 6.13698 8.88506C5.47398 8.75006 4.97598 8.16806 4.97598 7.46606V7.44806C5.17098 7.55606 5.39298 7.62206 5.62998 7.62806C5.23998 7.37006 4.98498 6.92606 4.98498 6.42506C4.98498 6.16106 5.05698 5.91206 5.17998 5.69906C5.89398 6.57506 6.95897 7.15106 8.16197 7.21106C8.13497 7.10606 8.12297 6.99506 8.12297 6.88106C8.12297 6.08306 8.77097 5.43506 9.56897 5.43506C9.98597 5.43506 10.361 5.60906 10.625 5.89106C10.955 5.82506 11.264 5.70506 11.543 5.54006C11.435 5.87906 11.207 6.16106 10.907 6.34106C11.201 6.30506 11.48 6.22706 11.738 6.11306C11.543 6.40406 11.297 6.65906 11.015 6.86306C11.018 6.92306 11.018 6.98606 11.018 7.04906Z" fill="currentColor"/>
</svg>
