<svg width="16" height="16" viewBox="0 0 16 16" xmlns="http://www.w3.org/2000/svg">
<path d="M8 14C11.3137 14 14 11.3137 14 8C14 4.68629 11.3137 2 8 2C4.68629 2 2 4.68629 2 8C2 11.3137 4.68629 14 8 14Z" fill="currentColor"/>
<path d="M6.90197 11.1651C9.56297 11.1651 11.018 8.96006 11.018 7.04906C11.018 6.98606 11.018 6.92306 11.015 6.86306C11.297 6.65906 11.543 6.40406 11.738 6.11306C11.48 6.22706 11.201 6.30506 10.907 6.34106C11.207 6.16106 11.435 5.87906 11.543 5.54006C11.264 5.70506 10.955 5.82506 10.625 5.89106C10.361 5.60906 9.98597 5.43506 9.56897 5.43506C8.77097 5.43506 8.12297 6.08306 8.12297 6.88106C8.12297 6.99506 8.13497 7.10606 8.16197 7.21106C6.95897 7.15106 5.89398 6.57506 5.17998 5.69906C5.05698 5.91206 4.98498 6.16106 4.98498 6.42506C4.98498 6.92606 5.23998 7.37006 5.62998 7.62806C5.39298 7.62206 5.17098 7.55606 4.97598 7.44806C4.97598 7.45406 4.97598 7.46006 4.97598 7.46606C4.97598 8.16806 5.47398 8.75006 6.13698 8.88506C6.01698 8.91806 5.88798 8.93606 5.75598 8.93606C5.66298 8.93606 5.57298 8.92706 5.48298 8.90906C5.66598 9.48506 6.19998 9.90206 6.83297 9.91406C6.33798 10.3011 5.71398 10.5321 5.03598 10.5321C4.91898 10.5321 4.80498 10.5261 4.69098 10.5111C5.32398 10.9251 6.08598 11.1651 6.90197 11.1651Z" fill="#fff"/>
</svg>
