<svg height="24" viewBox="0 0 24 24" width="24" xmlns="http://www.w3.org/2000/svg"><path d="m17.2523797 16h-10.58000003c-2.09 0-3.95-1.53-4.15-3.61-.23-2.38 1.64-4.39 3.98-4.39h12.36000003c1.31 0 2.5.94 2.63 2.24.15 1.5-1.02 2.76-2.49 2.76h-10.50000003c-.55 0-1-.45-1-1s.45-1 1-1h8.75000003c.41 0 .75-.34.75-.75s-.34-.75-.75-.75h-8.61000003c-1.31 0-2.5.94-2.63 2.24-.15 1.5 1.02 2.76 2.49 2.76h10.33000003c2.09 0 3.95-1.53 4.15-3.61.23-2.39-1.64-4.39-3.98-4.39h-12.27000003c-2.87 0-5.44 2.1-5.71 4.96-.3 3.29 2.26 6.04 5.48 6.04h10.75000003c.41 0 .75-.34.75-.75s-.34-.75-.75-.75z"/></svg>