<svg height="24" viewBox="0 0 24 24" width="24" xmlns="http://www.w3.org/2000/svg"><path d="m18.003918 15.75v-5c0-3.07-1.64-5.64-4.5-6.32v-.68c0-.83-.68-1.5-1.51-1.5s-1.49.67-1.49 1.5v.68c-2.86999995.68-4.49999995 3.24-4.49999995 6.32v5l-1.3 1.29c-.63.63-.19 1.71.7 1.71h13.16999995c.89 0 1.34-1.08.71-1.71zm-6.01 6c1.1 0 2-.9 2-2h-3.99999995c0 1.1.88999995 2 1.99999995 2zm-5.21999995-17.27c.42-.38.43-1.03.03-1.43-.38-.38-1-.39-1.39-.02-1.71 1.56-2.89 3.68-3.27 6.06-.09.61.38 1.16 1 1.16.48 0 .9-.35.98-.83.3-1.94 1.26-3.67 2.65-4.94zm11.82999995-1.45c-.4-.37-1.02-.36-1.4.02-.4.4-.38 1.04.03 1.42 1.38 1.27 2.35 3 2.65 4.94.07.48.49.83.98.83.61 0 1.09-.55.99-1.16-.38-2.37-1.55-4.48-3.25-6.05z"/></svg>