<svg height="24" viewBox="0 0 24 24" width="24" xmlns="http://www.w3.org/2000/svg"><path d="m12 2c-5.53 0-10 4.47-10 10s4.47 10 10 10 10-4.47 10-10-4.47-10-10-10zm4.3 14.3c-.39.39-1.02.39-1.41 0l-2.89-2.89-2.89 2.89c-.39.39-1.02.39-1.41 0-.18725267-.1868315-.29248561-.4404824-.29248561-.705s.10523294-.5181685.29248561-.705l2.89-2.89-2.89-2.89c-.18725267-.18683153-.29248561-.44048236-.29248561-.705s.10523294-.51816847.29248561-.705c.39-.39 1.02-.39 1.41 0l2.89 2.89 2.89-2.89c.39-.39 1.02-.39 1.41 0s.39 1.02 0 1.41l-2.89 2.89 2.89 2.89c.38.38.38 1.02 0 1.41z"/></svg>