<svg height="24" viewBox="0 0 24 24" width="24" xmlns="http://www.w3.org/2000/svg"><path d="m8.12 19.2999928c.39.39 1.02.39 1.41 0l2.47-2.47 2.47 2.47c.39.39 1.02.39 1.41 0s.39-1.02 0-1.41l-3.17-3.17c-.1868315-.1872527-.4404824-.2924856-.705-.2924856s-.5181685.1052329-.705.2924856l-3.17 3.17c-.4.38-.4 1.02-.01 1.41zm7.76-14.6c-.1868315-.18725267-.4404824-.2924856-.705-.2924856s-.5181685.10523293-.705.2924856l-2.47 2.47-2.47-2.47c-.18683153-.18725267-.44048236-.2924856-.705-.2924856s-.51816847.10523293-.705.2924856c-.39.39-.39 1.03 0 1.42l3.17 3.17c.39.39 1.02.39 1.41 0l3.17-3.17c.4-.39.4-1.03.01-1.42z"/></svg>