<svg height="24" viewBox="0 0 24 24" width="24" xmlns="http://www.w3.org/2000/svg"><path d="m10.79 16.29c.39.39 1.02.39 1.41 0l3.59-3.59c.39-.39.39-1.02 0-1.41l-3.59-3.59c-.1868315-.18725267-.4404824-.29248561-.705-.29248561s-.5181685.10523294-.705.29248561c-.39.39-.39 1.02 0 1.41l1.88 1.89h-8.67c-.55 0-1 .45-1 1s.45 1 1 1h8.67l-1.88 1.88c-.39.39-.38 1.03 0 1.41zm8.21-13.29h-14c-1.11 0-2 .9-2 2v3c0 .55.45 1 1 1s1-.45 1-1v-2c0-.55.45-1 1-1h12c.55 0 1 .45 1 1v12c0 .55-.45 1-1 1h-12c-.55 0-1-.45-1-1v-2c0-.55-.45-1-1-1s-1 .45-1 1v3c0 1.1.9 2 2 2h14c1.1 0 2-.9 2-2v-14c0-1.1-.9-2-2-2z"/></svg>