<svg height="24" viewBox="0 0 24 24" width="24" xmlns="http://www.w3.org/2000/svg"><path d="m12 5.8299928 2.46 2.46c.39.39 1.02.39 1.41 0s.39-1.02 0-1.41l-3.17-3.18c-.1868315-.18725267-.4404824-.2924856-.705-.2924856s-.5181685.10523293-.705.2924856l-3.17 3.18c-.39.39-.39 1.02 0 1.41s1.02.39 1.41 0zm0 12.34-2.46-2.46c-.18683153-.1872527-.44048236-.2924856-.705-.2924856s-.51816847.1052329-.705.2924856c-.39.39-.39 1.02 0 1.41l3.17 3.18c.39.39 1.02.39 1.41 0l3.17-3.17c.39-.39.39-1.02 0-1.41-.1868315-.1872527-.4404824-.2924856-.705-.2924856s-.5181685.1052329-.705.2924856z"/></svg>