<svg height="24" viewBox="0 0 24 24" width="24" xmlns="http://www.w3.org/2000/svg"><path d="m12 2c-5.52 0-10 4.48-10 10s4.48 10 10 10 10-4.48 10-10-4.48-10-10-10zm1 17h-2v-2h2zm2.07-7.75-.9.92c-.5.51-.86.97-1.04 1.69-.08.32-.13.68-.13 1.14h-2v-.5c0-.46.08-.9.22-1.31.2-.58.53-1.1.95-1.52l1.24-1.26c.46-.44.68-1.1.55-1.8-.13-.72-.69-1.33-1.39-1.53-1.11-.31-2.14.32-2.47 1.27-.12.37-.43.65-.82.65h-.3c-.58 0-.98-.56-.82-1.12.43-1.47 1.68-2.59 3.23-2.83 1.52-.24 2.97.55 3.87 1.8 1.18 1.63.83 3.38-.19 4.4z"/></svg>