<svg height="24" viewBox="0 0 24 24" width="24" xmlns="http://www.w3.org/2000/svg"><path d="m22.420618 11.34-1.86-2.12.26-2.81c.05-.5-.29-.96-.77-1.07l-2.76-.63-1.44-2.43c-.26-.43-.79-.61-1.25-.41l-2.6 1.13-2.59-1.11c-.46-.2-1-.02-1.25.41l-1.45 2.42-2.75.62c-.49.11-.83.56-.78 1.07l.26 2.8-1.86 2.13c-.33.38-.33.94 0 1.32l1.86 2.12-.26 2.82c-.05.5.29.96.77 1.07l2.76.63 1.44 2.42c.26.43.79.61 1.26.41l2.59-1.13 2.59 1.11c.46.2 1 .02 1.25-.41l1.44-2.43 2.76-.63c.49-.11.82-.57.77-1.07l-.26-2.81 1.86-2.12c.34-.36.34-.92.01-1.3zm-9.42 5.66h-2v-2h2zm-1-4c-.55 0-1-.45-1-1v-4c0-.55.45-1 1-1s1 .45 1 1v4c0 .55-.45 1-1 1z"/></svg>