<svg height="24" viewBox="0 0 24 24" width="24" xmlns="http://www.w3.org/2000/svg"><path d="m17.6418319 6.35146095c-1.63-1.63-3.94-2.57-6.48-2.31-3.66999995.37-6.68999995 3.35-7.09999995 7.02000005-.55 4.85 3.2 8.94 7.92999995 8.94 3.19 0 5.93-1.87 7.21-4.56.32-.67-.16-1.44-.9-1.44-.37 0-.72.2-.88.53-1.13 2.43-3.84 3.97-6.8 3.31-2.21999995-.49-4.00999995-2.3-4.47999995-4.52-.84-3.88000005 2.11-7.32000005 5.84999995-7.32000005 1.66 0 3.14.69 4.22 1.78l-1.51 1.51c-.63.63-.19 1.71000005.7 1.71000005h3.59c.55 0 1-.45 1-1v-3.59000005c0-.89-1.08-1.34-1.71-.71z"/></svg>