<svg height="24" viewBox="0 0 24 24" width="24" xmlns="http://www.w3.org/2000/svg"><path d="m12 5.99983252v1.79c0 .45.54.67.85.35l2.79-2.79c.2-.2.2-.51 0-.71l-2.79-2.79c-.31-.31-.85-.09-.85.36v1.79c-4.42 0-8 3.58-8 7.99999998 0 1.04.2 2.04.57 2.95.27.67 1.13.85 1.64.34.27-.27.38-.68.23-1.04-.29-.69-.44-1.46-.44-2.25 0-3.30999998 2.69-5.99999998 6-5.99999998zm5.79 2.71c-.27.27-.38.69-.23 1.04.28.69999998.44 1.45999998.44 2.24999998 0 3.31-2.69 6-6 6v-1.79c0-.45-.54-.67-.85-.35l-2.79 2.79c-.2.2-.2.51 0 .71l2.79 2.79c.31.31.85.09.85-.35v-1.8c4.42 0 8-3.58 8-8 0-1.04-.2-2.03999998-.57-2.94999998-.27-.67-1.13-.85-1.64-.34z"/></svg>