<svg height="24" viewBox="0 0 24 24" width="24" xmlns="http://www.w3.org/2000/svg"><path d="m12.854973 15.67c.14-.36.05-.77-.23-1.05l-2.09-2.06.03-.03c1.74-1.94 2.98-4.17 3.71-6.53h1.94c.54 0 .99-.45.99-.99v-.02c0-.54-.45-.99-.99-.99h-6.01v-1c0-.55-.45000002-1-1.00000002-1s-1 .45-1 1v1h-6.01c-.54 0-.99.45-.99.99 0 .55.45.99.99.99h10.18000002c-.67 1.94-1.73 3.77-3.17000002 5.37-.81-.89-1.49-1.86-2.06-2.88-.16-.29-.45-.47-.78-.47-.69 0-1.13.75-.79 1.35.63 1.13 1.4 2.21 2.3 3.21l-4.37 4.31c-.4.39-.4 1.03 0 1.42.39.39 1.02.39 1.42 0l4.28-4.29 2.02000002 2.02c.51.51 1.38.32 1.63-.35zm4.85-5.67c-.6 0-1.14.37-1.35.94l-3.67 9.8c-.24.61.22 1.26.87 1.26.39 0 .74-.24.88-.61l.89-2.39h4.75l.9 2.39c.14.36.49.61.88.61.65 0 1.11-.65.88-1.26l-3.67-9.8c-.22-.57-.76-.94-1.36-.94zm-1.62 7 1.62-4.33 1.62 4.33z"/></svg>