<svg width="24" height="24" viewBox="0 0 24 24" xmlns="http://www.w3.org/2000/svg">
<path id="icon/communication/alternate_email_24px_2" d="M2.02762 12.7181C1.59769 6.62775 6.62772 1.59796 12.7176 2.02814C18.0076 2.388 21.9976 7.00812 21.9976 12.3177V13.408C21.9976 14.848 21.1778 16.2181 19.8377 16.7479C18.2076 17.3978 16.4278 16.7581 15.5376 15.5379C14.3877 16.7078 12.6377 17.2982 10.7976 16.868C8.90775 16.4178 7.41776 14.8377 7.07767 12.928C6.46756 9.50812 9.33768 6.56769 12.7376 7.05792C15.2176 7.40802 16.9976 9.66778 16.9976 12.178V13.428C16.9976 14.2181 17.7076 14.9979 18.4976 14.9979C19.2876 14.9979 19.9976 14.2181 19.9976 13.428V12.3279C19.9976 8.59796 17.5777 5.17804 13.9576 4.25812C8.15775 2.75812 2.7576 8.16778 4.24759 13.9681C5.17777 17.5779 8.59769 19.9979 12.3277 19.9979H15.9976C16.5476 19.9979 16.9976 20.4481 16.9976 20.9979C16.9976 21.3265 16.8369 21.6194 16.5906 21.8021C16.4243 21.9251 16.219 21.9979 15.9976 21.9979H12.3076C7.0076 21.9979 2.38773 18.0081 2.02762 12.7181ZM8.99759 11.9979C8.99759 13.658 10.3377 14.9979 11.9976 14.9979C13.6575 14.9979 14.9976 13.658 14.9976 11.9979C14.9976 10.3377 13.6575 8.99786 11.9976 8.99786C10.3377 8.99786 8.99759 10.3377 8.99759 11.9979Z"/>
</svg>
