<svg height="24" viewBox="0 0 24 24" width="24" xmlns="http://www.w3.org/2000/svg"><path d="m12 6.47c2.76 0 5 2.24 5 5 0 .51-.1 1-.24 1.46l3.06 3.06c1.39-1.23 2.49-2.77 3.18-4.53-1.73-4.38-6-7.49-11-7.49-1.27 0-2.49.2-3.64.57l2.17 2.17c.47-.14.96-.24 1.47-.24zm-9.29-3.34c-.39.39-.39 1.02 0 1.41l1.97 1.97c-1.62 1.29-2.91 2.99-3.68 4.96 1.73 4.39 6 7.5 11 7.5 1.52 0 2.97-.3 4.31-.82l2.72 2.72c.39.39 1.02.39 1.41 0s.39-1.02 0-1.41l-16.31-16.33c-.39-.39-1.03-.39-1.42 0zm9.29 13.34c-2.76 0-5-2.24-5-5 0-.77.18-1.5.49-2.14l1.57 1.57c-.03.18-.06.37-.06.57 0 1.66 1.34 3 3 3 .2 0 .38-.03.57-.07l1.57 1.57c-.65.32-1.37.5-2.14.5zm2.97-5.33c-.15-1.4-1.25-2.49-2.64-2.64z"/></svg>