<svg height="24" viewBox="0 0 24 24" width="24" xmlns="http://www.w3.org/2000/svg"><path d="m19 7.7962428h-1.81c-.45-.78-1.07-1.45-1.82-1.96l.93-.93c.39-.39.39-1.02 0-1.41-.1868315-.18725267-.4404824-.2924856-.705-.2924856s-.5181685.10523293-.705.2924856l-1.47 1.47c-.46-.11-.93-.17-1.42-.17s-.96.06-1.41.17l-1.48-1.47c-.18683153-.18725267-.44048236-.2924856-.705-.2924856s-.51816847.10523293-.705.2924856c-.39.39-.39 1.02 0 1.41l.92.93c-.74.51-1.36 1.18-1.81 1.96h-1.81c-.55 0-1 .45-1 1s.45 1 1 1h1.09c-.05.33-.09.66-.09 1v1h-1c-.55 0-1 .45-1 1s.45 1 1 1h1v1c0 .34.04.67.09 1h-1.09c-.55 0-1 .45-1 1s.45 1 1 1h1.81c1.04 1.79 2.97 3 5.19 3s4.15-1.21 5.19-3h1.81c.55 0 1-.45 1-1s-.45-1-1-1h-1.09c.05-.33.09-.66.09-1v-1h1c.55 0 1-.45 1-1s-.45-1-1-1h-1v-1c0-.34-.04-.67-.09-1h1.09c.55 0 1-.45 1-1s-.45-1-1-1zm-6 8h-2c-.55 0-1-.45-1-1s.45-1 1-1h2c.55 0 1 .45 1 1s-.45 1-1 1zm0-4h-2c-.55 0-1-.45-1-1s.45-1 1-1h2c.55 0 1 .45 1 1s-.45 1-1 1z"/></svg>