<svg height="24" viewBox="0 0 24 24" width="24" xmlns="http://www.w3.org/2000/svg"><path d="m15.3222402 18.5c-2.51 0-4.68-1.42-5.76000001-3.5h4.76000001c.55 0 1-.45 1-1s-.45-1-1-1h-5.42000001c-.05-.33-.08-.66-.08-1s.03-.67.08-1h5.42000001c.55 0 1-.45 1-1s-.45-1-1-1h-4.76000001c1.08000001-2.08 3.26000001-3.5 5.76000001-3.5 1.25 0 2.42.36 3.42.97.5.31 1.15.26 1.57-.16.58-.58.45-1.53-.25-1.96-1.38-.85-3.01-1.35-4.74-1.35-3.92 0-7.24000001 2.51-8.48000001 6h-2.52c-.55 0-1 .45-1 1s.45 1 1 1h2.06c-.04.33-.06.66-.06 1s.02.67.06 1h-2.06c-.55 0-1 .45-1 1s.45 1 1 1h2.52c1.24 3.49 4.56000001 6 8.48000001 6 1.74 0 3.36-.49 4.74-1.35.69-.43.82-1.39.24-1.97-.42-.42-1.07-.47-1.57-.15-.99.62-2.15.97-3.41.97z"/></svg>