<svg height="24" viewBox="0 0 24 24" width="24" xmlns="http://www.w3.org/2000/svg"><path d="m20 6.5h-2.18c.11-.31.18-.65.18-1 0-1.66-1.34-3-3-3-1.05 0-1.96.54-2.5 1.35l-.5.67-.5-.68c-.54-.8-1.45-1.34-2.5-1.34-1.66 0-3 1.34-3 3 0 .35.07.69.18 1h-2.18c-1.11 0-1.99.89-1.99 2l-.01 11c0 1.11.89 2 2 2h16c1.11 0 2-.89 2-2v-11c0-1.11-.89-2-2-2zm-5-2c.55 0 1 .45 1 1s-.45 1-1 1-1-.45-1-1 .45-1 1-1zm-6 0c.55 0 1 .45 1 1s-.45 1-1 1-1-.45-1-1 .45-1 1-1zm11 15h-16v-2h16zm0-5h-16v-5c0-.55.45-1 1-1h4.08l-1.48 2.02c-.33.45-.23 1.08.22 1.4.44.32 1.07.22 1.39-.22l2.79-3.8 2.79 3.8c.32.44.95.54 1.39.22.45-.32.55-.95.22-1.4l-1.48-2.02h4.08c.55 0 1 .45 1 1z"/></svg>