<svg width="24" height="24" viewBox="0 0 24 24" xmlns="http://www.w3.org/2000/svg">
<path d="M17.0928 8.26248L20.9971 8.27726L20.6833 10H14L14.2526 8.5878L18.8689 3.74492L15.2325 3.73013L15.5464 2H22L21.755 3.36784L17.0928 8.26248Z"/>
<path fill-rule="evenodd" clip-rule="evenodd" d="M19.7479 14.0005C18.8597 17.4508 15.7276 20.0002 12 20.0002C7.58172 20.0002 4 16.4185 4 12.0002C4 7.91051 7.06883 4.53755 11.0293 4.05852L11.3427 2.02148C6.12624 2.35997 2 6.69823 2 12.0002C2 17.5231 6.47715 22.0002 12 22.0002C16.8379 22.0002 20.8735 18.5647 21.8 14.0001L19.7479 14.0005Z"/>
</svg>
