<svg height="24" viewBox="0 0 24 24" width="24" xmlns="http://www.w3.org/2000/svg"><path d="m2.05697737 10.04c.51.51 1.32.56 1.87.1 4.67-3.84 11.45000003-3.84 16.13000003-.01.56.46 1.38.42 1.89-.09.59-.59.55-1.57-.1-2.1-5.71-4.67-13.97000003-4.67-19.69000003 0-.65.52-.7 1.5-.1 2.1zm7.76 7.76 1.47000003 1.47c.39.39 1.02.39 1.41 0l1.47-1.47c.47-.47.37-1.28-.23-1.59-1.22-.63-2.68-.63-3.91 0-.57000003.31-.68000003 1.12-.21000003 1.59zm-3.73-3.73c.49.49 1.26.54 1.83.13 2.44000003-1.73 5.72000003-1.73 8.16000003 0 .57.4 1.34.36 1.83-.13l.01-.01c.6-.6.56-1.62-.13-2.11-3.44-2.49-8.13000003-2.49-11.58000003 0-.69.5-.73 1.51-.12 2.12z"/></svg>